<?xml version="1.0" encoding="UTF-8" standalone="no" ?>
<!DOCTYPE svg PUBLIC "-//W3C//DTD SVG 1.1//EN" "http://www.w3.org/Graphics/SVG/1.1/DTD/svg11.dtd">
<svg xmlns="http://www.w3.org/2000/svg" xmlns:xlink="http://www.w3.org/1999/xlink" version="1.1" width="640" height="480" viewBox="0 0 640 480" xml:space="preserve">
<desc>Created with Fabric.js 3.6.6</desc>
<defs>
</defs>
<g transform="matrix(1 0 0 1 332.5 252.42)"  >
<path style="stroke: none; stroke-width: 1; stroke-dasharray: none; stroke-linecap: butt; stroke-dashoffset: 0; stroke-linejoin: miter; stroke-miterlimit: 4; fill: rgb(255,85,0); fill-rule: nonzero; opacity: 1;"  transform=" translate(-256, -261.08)" d="M 47.6 300.4 L 228.3 469.1 c 7.5 7 17.4 10.9 27.7 10.9 s 20.2 -3.9 27.7 -10.9 L 464.4 300.4 c 30.4 -28.3 47.6 -68 47.6 -109.5 v -5.8 c 0 -69.9 -50.5 -129.5 -119.4 -141 C 347 36.5 300.6 51.4 268 84 L 256 96 L 244 84 c -32.6 -32.6 -79 -47.5 -124.6 -39.9 C 50.5 55.6 0 115.2 0 185.1 v 5.8 c 0 41.5 17.2 81.2 47.6 109.5 z" stroke-linecap="round" />
</g>
</svg>