<?xml version="1.0" encoding="UTF-8" standalone="no" ?>
<!DOCTYPE svg PUBLIC "-//W3C//DTD SVG 1.1//EN" "http://www.w3.org/Graphics/SVG/1.1/DTD/svg11.dtd">
<svg xmlns="http://www.w3.org/2000/svg" xmlns:xlink="http://www.w3.org/1999/xlink" version="1.1" width="640" height="480" viewBox="0 0 640 480" xml:space="preserve">
<desc>Created with Fabric.js 3.6.6</desc>
<defs>
</defs>
<g transform="matrix(1 0 0 1 320.5 256.5)"  >
<path style="stroke: none; stroke-width: 1; stroke-dasharray: none; stroke-linecap: butt; stroke-dashoffset: 0; stroke-linejoin: miter; stroke-miterlimit: 4; fill: rgb(255,85,0); fill-rule: nonzero; opacity: 1;"  transform=" translate(-320, -256)" d="M 352 128 c 0 70.7 -57.3 128 -128 128 s -128 -57.3 -128 -128 S 153.3 0 224 0 s 128 57.3 128 128 z M 0 482.3 C 0 383.8 79.8 304 178.3 304 h 91.4 C 368.2 304 448 383.8 448 482.3 c 0 16.4 -13.3 29.7 -29.7 29.7 H 29.7 C 13.3 512 0 498.7 0 482.3 z M 504 312 V 248 H 440 c -13.3 0 -24 -10.7 -24 -24 s 10.7 -24 24 -24 h 64 V 136 c 0 -13.3 10.7 -24 24 -24 s 24 10.7 24 24 v 64 h 64 c 13.3 0 24 10.7 24 24 s -10.7 24 -24 24 H 552 v 64 c 0 13.3 -10.7 24 -24 24 s -24 -10.7 -24 -24 z" stroke-linecap="round" />
</g>
</svg>